<svg version="1.1" xmlns="http://www.w3.org/2000/svg" viewBox="318.57 260.72 419.77 421.42">
<path d="M0 0 C3.73 3.15 6.48 6.14 7 11.11 C7.3 15.69 6.44 18.75 4.06 22.74 C1.25 25.77 -1.71 28.35 -5.94 28.74 C-6.94 28.83 -7.94 28.92 -8.97 29.02 C-14.18 28.65 -17.92 26.76 -22.57 24.49 C-30.27 20.87 -37.7 17.9 -45.94 15.74 C-46.66 15.53 -47.38 15.32 -48.12 15.1 C-53.67 13.54 -59.21 13.04 -64.94 12.74 C-66.12 12.67 -67.29 12.61 -68.5 12.54 C-98.26 11.67 -124.96 23.82 -146.85 43.33 C-162.6 58.39 -173.97 78.47 -178.94 99.74 C-179.27 101.1 -179.27 101.1 -179.61 102.49 C-182.69 117.46 -181.53 133 -177.94 147.74 C-177.72 148.64 -177.51 149.53 -177.29 150.46 C-169.39 179.42 -150.11 202.33 -124.31 217.09 C-108.06 225.99 -90.13 230.33 -71.63 230.11 C-69.72 230.1 -69.72 230.1 -67.78 230.08 C-40.11 229.6 -13.52 219.55 7.06 200.74 C7.78 199.99 8.49 199.25 9.23 198.48 C11.06 196.74 11.06 196.74 13.06 196.74 C13.33 196.15 13.61 195.55 13.9 194.94 C15 192.86 16.14 191.27 17.67 189.49 C35.88 167.76 44.14 140.1 42.06 111.74 C40.57 99.3 36.68 85.97 31.06 74.74 C30.46 68.76 31.69 64.6 35.06 59.74 C38.55 56.42 41.29 55.47 46 55.24 C52.16 55.51 55.86 57.53 60.25 61.93 C75.98 86.33 77.68 121.85 71.82 149.44 C71.27 151.88 70.67 154.31 70.06 156.74 C69.88 157.49 69.69 158.25 69.51 159.02 C64.49 179.47 53.73 197.84 40.06 213.74 C39.26 214.68 38.46 215.63 37.64 216.6 C30.6 224.71 22.63 231.3 14.06 237.74 C13.3 238.32 12.55 238.91 11.77 239.51 C-0.4 248.31 -15.5 254.03 -29.94 257.74 C-31.2 258.08 -31.2 258.08 -32.49 258.43 C-64.53 266.9 -98.71 264.33 -128.94 250.74 C-129.6 250.44 -130.25 250.15 -130.93 249.85 C-166.13 233.77 -192.23 204.44 -205.84 168.4 C-215.37 141.91 -216.73 110.98 -208.32 83.99 C-208.06 83.15 -207.8 82.31 -207.53 81.44 C-202.59 65.97 -195.73 52.68 -185.94 39.74 C-185.21 38.77 -184.48 37.79 -183.73 36.79 C-160.38 7.06 -126.42 -13.47 -88.79 -18.76 C-59.2 -22.23 -25.13 -16.63 0 0 Z " fill="#EF562F" transform="translate(597.94140625,348.26171875)"/>
<path d="M0 0 C3.62 1.98 7.13 4.25 9 8 C13.2 40.57 -11.72 80.63 -30.55 105.42 C-34.45 110.29 -38.63 114.77 -43.11 119.11 C-44.97 120.97 -46.63 122.91 -48.31 124.94 C-52.65 129.97 -57.82 133.89 -63 138 C-63.87 138.73 -64.73 139.46 -65.62 140.22 C-106.25 174.56 -162.77 189.4 -215.25 185.49 C-248.16 182.65 -290.14 173.62 -315 150 C-318.07 145.78 -318.69 141.66 -318.55 136.54 C-317.41 131.31 -313.52 127.71 -309.2 124.78 C-304.64 123.16 -300.99 123.6 -296.55 125.4 C-295.32 126.04 -294.1 126.7 -292.88 127.38 C-291.46 128.11 -290.05 128.85 -288.63 129.58 C-287.88 129.97 -287.13 130.37 -286.36 130.77 C-246.37 151.58 -203.39 159.29 -159 149 C-158.19 148.81 -157.37 148.63 -156.54 148.43 C-126.94 141.38 -98.45 127.27 -76.34 106.21 C-74.29 104.28 -72.19 102.52 -70 100.75 C-64.66 96.11 -60.53 90.35 -56.29 84.72 C-55.14 83.19 -53.97 81.66 -52.8 80.14 C-39.04 61.86 -29.11 40.37 -22.74 18.45 C-20.59 11.21 -17.89 4.86 -11.11 0.89 C-7.4 -0.68 -3.94 -0.76 0 0 Z " fill="#CC4522" transform="translate(727,496)"/>
<path d="M0 0 C2.75 0.01 5.5 0 8.25 -0.01 C47.03 -0.04 95.29 10.81 124.65 37.83 C127.69 41.17 128.8 44.23 129.45 48.64 C128.79 53.45 127.2 56.65 123.95 60.26 C120.4 62.91 116.97 64.07 112.64 64.89 C107.03 63.94 102.81 61.14 97.95 58.26 C80.19 47.82 62.05 40 41.95 35.26 C40.68 34.94 39.41 34.62 38.09 34.29 C16.41 29.46 -10.46 30.17 -32.05 35.26 C-32.88 35.45 -33.7 35.65 -34.56 35.85 C-60.27 42.07 -84.44 53.64 -105.05 70.26 C-105.94 70.95 -106.84 71.65 -107.76 72.36 C-138.8 96.86 -161.68 133.32 -170.61 171.82 C-171.9 177.1 -173.24 181.17 -177.76 184.54 C-182.19 187.14 -185.88 187.81 -190.94 186.93 C-195.94 185.35 -198.45 182.34 -200.92 177.89 C-203.37 169.98 -201.31 163.39 -199.11 155.64 C-198.8 154.54 -198.49 153.44 -198.17 152.3 C-188.41 119.06 -169.91 90.12 -146.05 65.26 C-145.51 64.7 -144.98 64.14 -144.43 63.56 C-114.26 32.01 -74 10.27 -31.05 2.26 C-30.17 2.08 -29.3 1.91 -28.4 1.73 C-18.94 0.01 -9.58 -0.04 0 0 Z " fill="#EF562F" transform="translate(522.046142578125,260.7392578125)"/>
<path d="M0 0 C9.31 4.91 12.38 14.95 15.33 24.41 C22.75 49.34 23.3 74.99 16.94 100.27 C16.67 101.4 16.67 101.4 16.39 102.56 C11.37 123 0.62 141.37 -13.06 157.27 C-13.86 158.21 -14.65 159.16 -15.48 160.13 C-22.51 168.25 -30.48 174.83 -39.06 181.27 C-39.81 181.85 -40.57 182.44 -41.35 183.04 C-51.76 190.57 -66.39 197.78 -79.06 200.27 C-81.38 199.86 -81.38 199.86 -83.06 199.27 C-81.74 198.94 -80.42 198.61 -79.06 198.27 C-79.06 197.61 -79.06 196.95 -79.06 196.27 C-77.4 195.25 -75.73 194.26 -74.06 193.27 C-56.16 180.97 -45.53 162.28 -36.06 143.27 C-35.51 142.17 -34.96 141.06 -34.39 139.93 C-31.87 135.03 -31.87 135.03 -31.11 129.7 C-31.05 126.7 -30.3 125.83 -28.37 123.58 C-13.98 105.35 -9.39 77.95 -11.06 55.27 C-12.55 42.83 -16.44 29.5 -22.06 18.27 C-22.66 12.29 -21.43 8.13 -18.06 3.27 C-12.97 -1.58 -6.57 -2.33 0 0 Z " fill="#CC4522" transform="translate(651.05859375,404.73046875)"/>
<path d="M0 0 C3.62 1.98 7.13 4.25 9 8 C11.84 30.07 -0.1 57.65 -12 76 C-13.64 77.69 -15.3 79.36 -17 81 C-17.64 81.99 -18.28 82.98 -18.94 84 C-21.33 87.48 -23.61 89.5 -27 92 C-27.66 92 -28.32 92 -29 92 C-29 92.66 -29 93.32 -29 94 C-31.12 95.95 -31.12 95.95 -33.88 98.12 C-35.23 99.21 -35.23 99.21 -36.62 100.32 C-39 102 -39 102 -41 102 C-41 102.66 -41 103.32 -41 104 C-43.11 105.63 -45.21 107.11 -47.44 108.56 C-48.11 109 -48.78 109.44 -49.47 109.9 C-69.68 122.97 -93.01 132.81 -117 136 C-117 135.34 -117 134.68 -117 134 C-116.11 133.56 -115.23 133.12 -114.32 132.67 C-100.4 125.61 -87.66 116.99 -76.34 106.21 C-74.29 104.28 -72.19 102.52 -70 100.75 C-64.66 96.11 -60.53 90.35 -56.29 84.72 C-55.14 83.19 -53.97 81.66 -52.8 80.14 C-39.04 61.86 -29.11 40.37 -22.74 18.45 C-20.59 11.21 -17.89 4.86 -11.11 0.89 C-7.4 -0.68 -3.94 -0.76 0 0 Z " fill="#EF562F" transform="translate(727,496)"/>
<path d="M0 0 C4.7 2.79 6.44 6.74 8.05 11.8 C9.03 15.91 9.65 20.02 10.25 24.2 C14.09 51.05 25.52 77.25 41.4 99.17 C44.92 104.18 47.68 108.96 47.32 115.24 C46.16 120.45 43.35 124.21 39.06 127.26 C33.83 128.9 29.88 129.23 24.87 126.82 C-2.96 103.05 -18.33 58.75 -22.13 23.26 C-22.29 20.72 -22.39 18.18 -22.44 15.64 C-22.48 14.39 -22.52 13.14 -22.55 11.85 C-21.96 6.81 -19.78 3.76 -16.07 0.39 C-10.86 -1.61 -5.31 -1.84 0 0 Z " fill="#EF562F" transform="translate(341.12890625,477.73828125)"/>
<path d="M0 0 C1.24 -0.06 1.24 -0.06 2.51 -0.11 C10.13 1.04 14.1 5.96 18.47 11.85 C38.75 39.72 53.34 75.25 53.56 110 C53.58 110.83 53.6 111.66 53.62 112.51 C53.66 117.28 53.45 120.47 50.31 124.31 C45.09 128.1 41.73 129.03 35.31 128.31 C31.14 126.71 28.11 124.81 25.31 121.31 C23.39 116.45 22.66 111.64 21.94 106.5 C17.61 78.08 7.91 52.64 -8.94 29.18 C-16.04 19.06 -16.04 19.06 -15.69 12.31 C-13.93 7.03 -11.02 4.54 -6.69 1.31 C-4.3 0.12 -2.66 0.08 0 0 Z " fill="#EF562F" transform="translate(684.6875,339.6875)"/>
</svg>